{
    "asset": {
        "generator": "FBX2glTF",
        "version": "2.0"
    },
    "scene": 0,
    "buffers": [
        {
            "byteLength": 61088,
            "uri": "buffer.bin"
        }
    ],
    "bufferViews": [
        {
            "buffer": 0,
            "byteLength": 400,
            "byteOffset": 0
        },
        {
            "buffer": 0,
            "byteLength": 1200,
            "byteOffset": 400
        },
        {
            "buffer": 0,
            "byteLength": 1600,
            "byteOffset": 1600
        },
        {
            "buffer": 0,
            "byteLength": 15360,
            "byteOffset": 3200,
            "target": 34963
        },
        {
            "buffer": 0,
            "byteLength": 15948,
            "byteOffset": 18560,
            "target": 34962
        },
        {
            "buffer": 0,
            "byteLength": 15948,
            "byteOffset": 34508,
            "target": 34962
        },
        {
            "buffer": 0,
            "byteLength": 10632,
            "byteOffset": 50456,
            "target": 34962
        }
    ],
    "scenes": [
        {
            "name": "Root Scene",
            "nodes": [
                0
            ]
        }
    ],
    "accessors": [
        {
            "componentType": 5126,
            "type": "SCALAR",
            "count": 100,
            "bufferView": 0,
            "byteOffset": 0,
            "min": [
                0
            ],
            "max": [
                4.125
            ]
        },
        {
            "componentType": 5126,
            "type": "VEC3",
            "count": 100,
            "bufferView": 1,
            "byteOffset": 0
        },
        {
            "componentType": 5126,
            "type": "VEC4",
            "count": 100,
            "bufferView": 2,
            "byteOffset": 0
        },
        {
            "componentType": 5123,
            "type": "SCALAR",
            "count": 7680,
            "bufferView": 3,
            "byteOffset": 0
        },
        {
            "componentType": 5126,
            "type": "VEC3",
            "count": 1329,
            "bufferView": 4,
            "byteOffset": 0,
            "min": [
                -0.012915161438286,
                -0.29611641168594,
                -0.012883114628494
            ],
            "max": [
                0.0128711508587,
                0.34696173667908,
                0.012903168797493
            ]
        },
        {
            "componentType": 5126,
            "type": "VEC3",
            "count": 1329,
            "bufferView": 5,
            "byteOffset": 0
        },
        {
            "componentType": 5126,
            "type": "VEC2",
            "count": 1329,
            "bufferView": 6,
            "byteOffset": 0
        }
    ],
    "images": [
        {
            "name": "Rod NEw 2.jpg",
            "uri": "Rod NEw 2.jpg"
        }
    ],
    "samplers": [
        {}
    ],
    "textures": [
        {
            "name": "file1",
            "sampler": 0,
            "source": 0
        }
    ],
    "materials": [
        {
            "name": "blinn1",
            "alphaMode": "OPAQUE",
            "extras": {
                "fromFBX": {
                    "shadingModel": "Phong",
                    "isTruePBR": false
                }
            },
            "pbrMetallicRoughness": {
                "baseColorTexture": {
                    "index": 0,
                    "texCoord": 0
                },
                "baseColorFactor": [
                    0.80000001192093,
                    0.80000001192093,
                    0.80000001192093,
                    1
                ],
                "metallicFactor": 0.40000000596046,
                "roughnessFactor": 0.49053239822388
            }
        }
    ],
    "meshes": [
        {
            "name": "Neon_rod",
            "primitives": [
                {
                    "material": 0,
                    "mode": 4,
                    "attributes": {
                        "NORMAL": 5,
                        "POSITION": 4,
                        "TEXCOORD_0": 6
                    },
                    "indices": 3
                }
            ]
        }
    ],
    "animations": [
        {
            "name": "RodAnim",
            "channels": [
                {
                    "sampler": 0,
                    "target": {
                        "node": 1,
                        "path": "translation"
                    }
                },
                {
                    "sampler": 1,
                    "target": {
                        "node": 1,
                        "path": "rotation"
                    }
                }
            ],
            "samplers": [
                {
                    "input": 0,
                    "interpolation": "LINEAR",
                    "output": 1
                },
                {
                    "input": 0,
                    "interpolation": "LINEAR",
                    "output": 2
                }
            ]
        }
    ],
    "nodes": [
        {
            "name": "RootNode",
            "translation": [
                0,
                0,
                0
            ],
            "rotation": [
                0,
                0,
                0,
                1
            ],
            "scale": [
                1,
                1,
                1
            ],
            "children": [
                1
            ]
        },
        {
            "name": "Neon_rod",
            "translation": [
                1.2143064383536e-19,
                0.042137458920479,
                -0.0010049851844087
            ],
            "rotation": [
                1,
                7.498798786106e-33,
                1.2246468525852e-16,
                -6.1232342629258e-17
            ],
            "scale": [
                1,
                1,
                1
            ],
            "mesh": 0
        }
    ]
}